<svg enable-background="new 0 0 600 164.9" viewBox="0 0 600 164.9" xmlns="http://www.w3.org/2000/svg"><path d="m3.6 7.9h149.6v146.7h-149.6z" fill="#fff"/><g fill="#231f20"><path d="m321.7 147.9c-15.2 9.3-33.1 12.1-50.7 12.1-50.3 0-87.4-28.2-87.4-81 0-50.7 41.3-76.1 88.3-76.1 18.1 0 32.9 1.5 54.1 10.4l1.3 2.4c-2.2 8-4 24.3-5.1 33.8h-8.6l-1.1-19c-10.8-11.2-24.7-15.2-39.7-15.2-36.6 0-56 26-56 60.9 0 40.4 23.4 69.5 65.1 69.5 13 0 30.9-4.6 42.1-11.2l2.7 2.7"/><path d="m391.6 126.5c0 9.3.2 15.2 1.5 17.9.9 1.8 3.3 2.7 9.1 3.1l8.2.7v8.8c-9-.2-21.2-.7-34.2-.7-13.2 0-25.4.4-34.4.7v-8.8l8.2-.7c5.7-.4 8.2-1.3 9-3.1 1.3-2.6 1.6-8.6 1.6-17.9v-90c0-9.3-.2-15.2-1.6-17.9-.9-1.8-3.3-2.6-9-3.1l-8.2-.7v-8.8c9 .2 21.2.7 34.4.7 13 0 25.2-.4 34.2-.7v8.8l-8.2.7c-5.7.4-8.2 1.3-9.1 3.1-1.3 2.7-1.5 8.6-1.5 17.9"/><path d="m567.9 146.8c-20.3 7.9-41.7 13.2-64.4 13.2-50.3 0-87.4-28.2-87.4-81 0-50.7 41.3-76.1 88.2-76.1 20.1 0 39.7 1.8 60.7 10.4l1.3 2.4c-2.2 8-4 24.3-5.1 33.8h-8.6l-1.1-19c-8.6-10.1-28.2-15.2-46.3-15.2-36.6 0-56 26-56 60.9 0 38.2 19.6 71.5 59.3 71.5 9.7 0 18.8-2 28-5.5v-29.2c0-6.8-5.5-7.9-12.6-8.2l-11.7-.4v-9.1c10.8.2 21.6.7 32.4.7s21.4-.4 32.2-.7v7.5c-7.5 1.5-9.1 2.4-9.1 7.9"/></g><path d="m152.9 2.3h-148.6c-1.8 0-3.2 1.4-3.2 3.2v148.6c0 1.8 1.4 3.2 3.2 3.2h148.6c1.8 0 3.2-1.4 3.2-3.2v-148.6c0-1.8-1.5-3.2-3.2-3.2m.8 98c-.2.2-.5.3-.8.1-.5-.3-50.3-31-67.8-21.3-3.9 2.2-5.9 6.3-6 12.3 0 .3-.3.6-.6.6-.1 0-.6 0-.7-.5-.2-6.2-2.4-10.5-6.6-12.6-18-9.4-66.6 21.7-67.1 22.1-.3.2-.6.1-.8-.1s-.2-.6 0-.8c14.6-17.1 38.3-39.8 75.2-40.2 13.8-.1 28.3 4.3 43 13.1 14.3 8.6 25.3 19.1 32 26.5.4.2.4.5.2.8" fill="#0093d0"/><path d="m593.5 140.9c1.3.6 2.4 1.4 3.4 2.4s1.7 2.2 2.3 3.6c.5 1.4.8 2.9.8 4.5s-.3 3.1-.8 4.5-1.3 2.6-2.3 3.6-2.1 1.8-3.4 2.4-2.7.9-4.3.9c-1.5 0-3-.3-4.3-.9s-2.4-1.4-3.4-2.4-1.7-2.2-2.3-3.6-.8-2.9-.8-4.5.3-3.1.8-4.5 1.3-2.6 2.3-3.6 2.1-1.8 3.4-2.4 2.8-.9 4.3-.9 2.9.3 4.3.9m-8 1.5c-1.1.5-2.1 1.2-2.9 2.1s-1.4 1.9-1.9 3.1-.7 2.5-.7 3.8c0 1.4.2 2.7.7 3.8.5 1.2 1.1 2.2 1.9 3.1s1.8 1.6 2.9 2.1 2.3.8 3.6.8 2.5-.3 3.6-.8 2.1-1.2 2.9-2.1 1.5-1.9 1.9-3.1c.5-1.2.7-2.5.7-3.8s-.2-2.6-.7-3.8-1.1-2.2-1.9-3.1-1.8-1.6-2.9-2.1-2.3-.8-3.6-.8c-1.2 0-2.4.3-3.6.8m-.2 15.5v-13.2h4.8c1.4 0 2.5.3 3.1.9.7.6 1 1.5 1 2.7 0 .6-.1 1.1-.2 1.5-.2.4-.4.8-.7 1.1s-.6.5-1 .7-.8.3-1.2.4l3.7 5.8h-1.8l-3.5-5.8h-2.6v5.8h-1.6zm4.9-7.2c.5 0 .9-.1 1.2-.3s.6-.4.8-.7.3-.7.3-1.3c0-.5-.1-.8-.2-1.1-.2-.3-.4-.5-.7-.7s-.6-.3-1-.4-.7-.1-1.1-.1h-2.8v4.5h2.1c.5.1 1 .1 1.4.1" fill="#231f20"/></svg>