<?xml version="1.0" encoding="utf-8"?>
<!-- Generator: Adobe Illustrator 22.1.0, SVG Export Plug-In . SVG Version: 6.00 Build 0)  -->
<svg version="1.1" id="Layer_1" xmlns="http://www.w3.org/2000/svg" xmlns:xlink="http://www.w3.org/1999/xlink" x="0px" y="0px"
	 width="301px" height="61.37px" viewBox="0 0 301 61.37" enable-background="new 0 0 301 61.37" xml:space="preserve">
<path fill="#004877" d="M78.09,60.66V17.14h11.7l8.38,30.39h0.12l8.44-30.39h11.81v43.53h-7.24V26.42h-0.12l-9.77,34.24h-6.33
	l-9.65-34.24h-0.12v34.24H78.09z M128.07,24.13h7.48v-7h-7.48V24.13z M135.54,29.32h-7.48v31.35h7.48V29.32z M144.83,60.66h7.48
	V17.14h-7.48V60.66z M161.59,60.66h7.48V17.14h-7.48V60.66z M178.35,24.13h7.48v-7h-7.48V24.13z M185.83,29.32h-7.48v31.35h7.48
	V29.32z M201.81,60.66V38.12c1.75-1.63,4.34-3.38,6.27-3.38c2.71,0.12,3.74,1.51,3.74,4.04v21.89h7.48V38.12
	c1.74-1.63,4.34-3.38,6.27-3.38c2.71,0.12,3.74,1.51,3.74,4.04v21.89h7.48V38.12c0-7.48-4.46-9.4-7.72-9.4
	c-5.19,0-8.2,1.99-10.79,4.58c-1.38-3.02-4.46-4.58-7.72-4.58c-4.28,0-6.57,1.38-9.4,3.98v-3.37h-6.81v31.35H201.81z M267.82,60.66
	c-0.48-1.38-0.6-2.95-0.6-4.52V41.37c0-9.41-3.62-12.48-12.06-12.66c-4.58-0.12-9.76,2.41-11.69,5.73l4.82,3.68
	c1.45-1.99,3.38-3.86,6.88-3.86c2.66,0,4.59,1.32,4.59,3.74v2.65c-12.18,1.45-17.97,5.19-17.97,12.3c0,4.28,2.83,8.32,8.51,8.32
	c3.92,0,6.75-1.27,9.77-3.32l0.48,2.71H267.82z M259.75,52.4c-1.57,1.33-4.52,3.32-6.88,3.32c-2.11,0-3.62-1.33-3.62-3.68
	c0-4.4,5.49-5.43,10.49-6.39V52.4z M282.17,60.66V38.05c1.27-1.45,3.74-3.31,6.99-3.31c2.54,0,3.86,1.33,3.86,5.55v20.38h7.47V39.2
	c0-6.39-3.01-10.49-9.28-10.49c-3.68,0-6.88,2.04-9.65,3.98v-3.37h-6.87v31.35H282.17z M61.06,0.1H44.02v17.03h17.03V0.1z"/>
<path fill="#A0BA92" d="M44.02,43.62l0-26.49l15.44,15.44c0.91,0.88,1.56,2.55,1.59,3.83v24.25H0.5V0.1h24.26
	c1.28,0.03,2.95,0.68,3.83,1.58l15.44,15.45l-26.49,0v26.48L44.02,43.62z"/>
</svg>
