<?xml version="1.0" encoding="UTF-8"?>
<svg xmlns="http://www.w3.org/2000/svg" xmlns:xlink="http://www.w3.org/1999/xlink" width="341.22pt" height="390.72pt" viewBox="0 0 341.22 390.72" version="1.1">
<defs>
<clipPath id="clip1">
  <path d="M 89 334 L 139 334 L 139 390.71875 L 89 390.71875 Z M 89 334 "/>
</clipPath>
<clipPath id="clip2">
  <path d="M 178 334 L 226 334 L 226 390.71875 L 178 390.71875 Z M 178 334 "/>
</clipPath>
<clipPath id="clip3">
  <path d="M 230 334 L 286 334 L 286 390.71875 L 230 390.71875 Z M 230 334 "/>
</clipPath>
<clipPath id="clip4">
  <path d="M 293 334 L 341.21875 334 L 341.21875 390 L 293 390 Z M 293 334 "/>
</clipPath>
<clipPath id="clip5">
  <path d="M 315 0 L 341.21875 0 L 341.21875 76 L 315 76 Z M 315 0 "/>
</clipPath>
</defs>
<g id="surface1">
<path style=" stroke:none;fill-rule:nonzero;fill:rgb(44.699097%,12.5%,50.19989%);fill-opacity:1;" d="M 0 315.4375 L 15.261719 315.4375 L 24.84375 352.050781 C 26.285156 358.351563 28.046875 368.148438 28.046875 368.148438 L 28.261719 368.148438 C 28.261719 368.148438 30.097656 358.960938 31.648438 352.460938 L 39.710938 315.4375 L 54.136719 315.4375 L 62.167969 352.371094 C 63.71875 358.871094 65.585938 368.148438 65.585938 368.148438 L 65.78125 368.148438 C 65.78125 368.148438 67.953125 358.351563 69.398438 351.945313 L 78.675781 315.4375 L 93.4375 315.4375 L 72.390625 389.171875 L 58.464844 389.171875 L 49.488281 349.683594 C 48.257813 344.304688 46.90625 336.578125 46.90625 336.578125 L 46.710938 336.578125 C 46.710938 336.578125 45.574219 344.304688 44.34375 349.683594 L 35.261719 389.171875 L 21.441406 389.171875 L 0 315.4375 "/>
<g clip-path="url(#clip1)" clip-rule="nonzero">
<path style=" stroke:none;fill-rule:nonzero;fill:rgb(44.699097%,12.5%,50.19989%);fill-opacity:1;" d="M 123.488281 370.515625 C 123.488281 375.65625 119.039063 380.605469 111.003906 380.605469 C 106.070313 380.605469 102.757813 378.847656 102.757813 373.917969 C 102.757813 368.96875 106.359375 367.3125 113.695313 365.65625 C 117.199219 364.835938 120.996094 364.015625 123.488281 362.574219 Z M 136.683594 381.335938 L 136.683594 354.421875 C 136.683594 342.058594 130.289063 334.9375 114.40625 334.9375 C 98.949219 334.9375 92.039063 343.089844 91.628906 352.371094 L 104.097656 352.371094 C 104.507813 347.3125 107.695313 344.929688 114.300781 344.929688 C 120.191406 344.929688 123.167969 347.40625 123.167969 351.230469 C 123.167969 355.253906 119.160156 355.96875 110.398438 357.210938 C 98.628906 358.871094 89.140625 362.574219 89.140625 374.222656 C 89.140625 384.738281 96.777344 390.417969 107.605469 390.417969 C 116.683594 390.417969 120.496094 387.320313 123.167969 383.3125 L 123.367188 383.3125 C 123.683594 385.679688 124.203125 388.140625 125.023438 389.171875 L 138.550781 389.171875 L 138.550781 388.65625 C 137.304688 387.746094 136.683594 385.34375 136.683594 381.335938 "/>
</g>
<path style=" stroke:none;fill-rule:nonzero;fill:rgb(44.699097%,12.5%,50.19989%);fill-opacity:1;" d="M 142.515625 345.550781 L 149.847656 345.550781 L 149.847656 376.597656 C 149.847656 386.589844 157.382813 389.292969 164.183594 389.292969 C 169.742188 389.292969 172.945313 389.082031 172.945313 389.082031 L 172.945313 378.753906 C 172.945313 378.753906 170.578125 378.847656 168.832031 378.847656 C 165.734375 378.847656 163.5625 377.539063 163.5625 373.613281 L 163.5625 345.550781 L 172.644531 345.550781 L 172.644531 336.273438 L 163.5625 336.273438 L 163.5625 319.78125 L 149.847656 319.78125 L 149.847656 336.273438 L 142.515625 336.273438 "/>
<g clip-path="url(#clip2)" clip-rule="nonzero">
<path style=" stroke:none;fill-rule:nonzero;fill:rgb(44.699097%,12.5%,50.19989%);fill-opacity:1;" d="M 178.398438 372.066406 C 179.21875 383.308594 187.78125 390.71875 203.136719 390.71875 C 216.347656 390.71875 225.425781 384.3125 225.425781 373.707031 C 225.425781 361.34375 215.617188 358.871094 206.75 357 C 199.21875 355.453125 192.21875 355.042969 192.21875 350.503906 C 192.21875 346.707031 195.816406 344.640625 201.28125 344.640625 C 207.265625 344.640625 210.878906 346.707031 211.503906 352.371094 L 224.183594 352.371094 C 223.148438 341.738281 215.417969 334.832031 201.480469 334.832031 C 189.4375 334.832031 179.929688 340.296875 179.929688 351.746094 C 179.929688 363.289063 189.226563 365.871094 198.699219 367.722656 C 205.929688 369.179688 212.628906 369.679688 212.628906 374.738281 C 212.628906 378.453125 209.117188 380.820313 202.9375 380.820313 C 196.652344 380.820313 192.308594 378.148438 191.382813 372.066406 L 178.398438 372.066406 "/>
</g>
<g clip-path="url(#clip3)" clip-rule="nonzero">
<path style=" stroke:none;fill-rule:nonzero;fill:rgb(44.699097%,12.5%,50.19989%);fill-opacity:1;" d="M 258.195313 380 C 249.527344 380 244.789063 373.097656 244.789063 362.773438 C 244.789063 352.460938 249.527344 345.445313 258.195313 345.445313 C 266.746094 345.445313 271.605469 352.460938 271.605469 362.773438 C 271.605469 373.097656 266.746094 380 258.195313 380 M 258.195313 334.832031 C 241.796875 334.832031 230.558594 346.992188 230.558594 362.773438 C 230.558594 378.570313 241.796875 390.71875 258.195313 390.71875 C 274.597656 390.71875 285.835938 378.570313 285.835938 362.773438 C 285.835938 346.992188 274.597656 334.832031 258.195313 334.832031 "/>
</g>
<g clip-path="url(#clip4)" clip-rule="nonzero">
<path style=" stroke:none;fill-rule:nonzero;fill:rgb(44.699097%,12.5%,50.19989%);fill-opacity:1;" d="M 306.972656 336.273438 L 293.261719 336.273438 L 293.261719 389.171875 L 307.289063 389.171875 L 307.289063 359.171875 C 307.289063 351.945313 311.816406 346.996094 318.011719 346.996094 C 323.890625 346.996094 327.183594 351.019531 327.183594 356.683594 L 327.183594 389.171875 L 341.214844 389.171875 L 341.214844 354.632813 C 341.214844 343.089844 333.898438 334.832031 322.964844 334.832031 C 315.75 334.832031 310.890625 337.824219 307.289063 343.5 L 306.972656 343.5 "/>
</g>
<path style=" stroke:none;fill-rule:nonzero;fill:rgb(44.699097%,12.5%,50.19989%);fill-opacity:1;" d="M 0 221.734375 L 0 234.347656 L 22.226563 234.347656 L 22.226563 295.703125 L 37.230469 295.703125 L 37.230469 234.347656 L 59.472656 234.347656 L 59.472656 221.734375 "/>
<path style=" stroke:none;fill-rule:nonzero;fill:rgb(44.699097%,12.5%,50.19989%);fill-opacity:1;" d="M 75.332031 286.503906 C 66.664063 286.503906 61.894531 279.566406 61.894531 269.234375 C 61.894531 258.875 66.664063 251.855469 75.332031 251.855469 C 83.941406 251.855469 88.796875 258.875 88.796875 269.234375 C 88.796875 279.566406 83.941406 286.503906 75.332031 286.503906 M 75.332031 241.191406 C 58.894531 241.191406 47.621094 253.40625 47.621094 269.234375 C 47.621094 285.070313 58.894531 297.257813 75.332031 297.257813 C 91.800781 297.257813 103.074219 285.070313 103.074219 269.234375 C 103.074219 253.40625 91.800781 241.191406 75.332031 241.191406 "/>
<path style=" stroke:none;fill-rule:nonzero;fill:rgb(44.699097%,12.5%,50.19989%);fill-opacity:1;" d="M 120.605469 295.703125 L 133.328125 295.703125 L 140.578125 269.632813 C 141.722656 265.382813 143.0625 260.429688 143.0625 260.429688 L 143.257813 260.429688 C 143.257813 260.429688 144.507813 265.382813 145.648438 269.632813 L 152.671875 295.703125 L 165.503906 295.703125 L 181.34375 242.636719 L 167.695313 242.636719 L 160.960938 267.253906 C 159.816406 271.597656 158.566406 277.1875 158.566406 277.1875 L 158.371094 277.1875 C 158.371094 277.1875 157.03125 271.597656 155.890625 267.148438 L 148.957031 242.636719 L 136.953125 242.636719 L 130.324219 267.148438 C 129.199219 271.488281 128.058594 277.1875 128.058594 277.1875 L 127.855469 277.1875 C 127.855469 277.1875 126.609375 271.597656 125.464844 267.253906 L 119.066406 242.636719 L 105.085938 242.636719 "/>
<path style=" stroke:none;fill-rule:nonzero;fill:rgb(44.699097%,12.5%,50.19989%);fill-opacity:1;" d="M 209.589844 252.050781 C 216.003906 252.050781 220.449219 256.699219 220.859375 263.433594 L 197.277344 263.433594 C 198.515625 256.5 202.140625 252.050781 209.589844 252.050781 M 210.625 286.382813 C 202.65625 286.382813 198.117188 281.328125 197.078125 273.148438 L 235.5625 273.148438 C 235.5625 254.214844 226.4375 241.191406 209.375 241.191406 C 193.851563 241.191406 183.203125 253.40625 183.203125 269.113281 C 183.203125 284.949219 193.136719 297.257813 210.714844 297.257813 C 224.378906 297.257813 232.773438 289.277344 234.726563 279.882813 L 220.859375 279.882813 C 219.324219 283.914063 216.109375 286.382813 210.625 286.382813 "/>
<path style=" stroke:none;fill-rule:nonzero;fill:rgb(44.699097%,12.5%,50.19989%);fill-opacity:1;" d="M 257.347656 242.636719 L 243.789063 242.636719 L 243.789063 295.703125 L 257.863281 295.703125 L 257.863281 269.84375 C 257.863281 258.679688 264.476563 253.804688 273.691406 254.734375 L 273.996094 254.734375 L 273.996094 242.425781 C 273.171875 242.117188 272.230469 242.011719 270.691406 242.011719 C 264.476563 242.011719 260.867188 245.105469 257.652344 251.105469 L 257.347656 251.105469 "/>
<path style=" stroke:none;fill-rule:nonzero;fill:rgb(44.699097%,12.5%,50.19989%);fill-opacity:1;" d="M 277.683594 278.527344 C 278.503906 289.824219 287.082031 297.257813 302.515625 297.257813 C 315.753906 297.257813 324.847656 290.828125 324.847656 280.171875 C 324.847656 267.773438 315.019531 265.289063 306.125 263.429688 C 298.570313 261.878906 291.546875 261.464844 291.546875 256.910156 C 291.546875 253.085938 295.15625 251.015625 300.640625 251.015625 C 306.640625 251.015625 310.269531 253.085938 310.894531 258.769531 L 323.613281 258.769531 C 322.578125 248.121094 314.824219 241.1875 300.851563 241.1875 C 288.742188 241.1875 279.222656 246.675781 279.222656 258.160156 C 279.222656 269.753906 288.53125 272.34375 298.050781 274.183594 C 305.300781 275.632813 312.019531 276.152344 312.019531 281.222656 C 312.019531 284.949219 308.5 287.324219 302.285156 287.324219 C 295.992188 287.324219 291.636719 284.644531 290.707031 278.527344 L 277.683594 278.527344 "/>
<path style=" stroke:none;fill-rule:nonzero;fill:rgb(44.699097%,12.5%,50.19989%);fill-opacity:1;" d="M 21.460938 202.121094 L 35.289063 202.121094 L 44.378906 162.601563 C 45.609375 157.234375 46.75 149.5 46.75 149.5 L 46.949219 149.5 C 46.949219 149.5 48.300781 157.234375 49.53125 162.601563 L 58.527344 202.121094 L 72.449219 202.121094 L 93.5 128.34375 L 78.742188 128.34375 L 69.457031 164.878906 C 68.011719 171.277344 65.835938 181.082031 65.835938 181.082031 L 65.640625 181.082031 C 65.640625 181.082031 63.785156 171.792969 62.238281 165.289063 L 54.179688 128.34375 L 39.742188 128.34375 L 31.6875 165.394531 C 30.121094 171.898438 28.28125 181.082031 28.28125 181.082031 L 28.054688 181.082031 C 28.054688 181.082031 26.308594 171.277344 24.863281 164.96875 L 15.273438 128.34375 L 0 128.34375 "/>
<path style=" stroke:none;fill-rule:nonzero;fill:rgb(44.699097%,12.5%,50.19989%);fill-opacity:1;" d="M 99.257813 140.941406 L 113.300781 140.941406 L 113.300781 128.34375 L 99.257813 128.34375 Z M 99.257813 140.941406 "/>
<path style=" stroke:none;fill-rule:nonzero;fill:rgb(44.699097%,12.5%,50.19989%);fill-opacity:1;" d="M 99.257813 202.121094 L 113.300781 202.121094 L 113.300781 149.191406 L 99.257813 149.191406 Z M 99.257813 202.121094 "/>
<path style=" stroke:none;fill-rule:nonzero;fill:rgb(44.699097%,12.5%,50.19989%);fill-opacity:1;" d="M 124.808594 202.121094 L 138.835938 202.121094 L 138.835938 128.34375 L 124.808594 128.34375 Z M 124.808594 202.121094 "/>
<path style=" stroke:none;fill-rule:nonzero;fill:rgb(44.699097%,12.5%,50.19989%);fill-opacity:1;" d="M 150.355469 202.121094 L 164.398438 202.121094 L 164.398438 128.34375 L 150.355469 128.34375 Z M 150.355469 202.121094 "/>
<path style=" stroke:none;fill-rule:nonzero;fill:rgb(44.699097%,12.5%,50.19989%);fill-opacity:1;" d="M 175.828125 140.941406 L 189.871094 140.941406 L 189.871094 128.34375 L 175.828125 128.34375 Z M 175.828125 140.941406 "/>
<path style=" stroke:none;fill-rule:nonzero;fill:rgb(44.699097%,12.5%,50.19989%);fill-opacity:1;" d="M 175.828125 202.121094 L 189.871094 202.121094 L 189.871094 149.191406 L 175.828125 149.191406 Z M 175.828125 202.121094 "/>
<path style=" stroke:none;fill-rule:nonzero;fill:rgb(44.699097%,12.5%,50.19989%);fill-opacity:1;" d="M 197.789063 185 C 198.609375 196.257813 207.183594 203.671875 222.5625 203.671875 C 235.785156 203.671875 244.859375 197.289063 244.859375 186.65625 C 244.859375 174.273438 235.039063 171.792969 226.179688 169.925781 C 218.640625 168.390625 211.636719 167.980469 211.636719 163.433594 C 211.636719 159.621094 215.234375 157.554688 220.707031 157.554688 C 226.695313 157.554688 230.3125 159.621094 230.9375 165.289063 L 243.628906 165.289063 C 242.59375 154.664063 234.84375 147.734375 220.921875 147.734375 C 208.839844 147.734375 199.355469 153.207031 199.355469 164.664063 C 199.355469 176.21875 208.625 178.800781 218.125 180.667969 C 225.359375 182.128906 232.0625 182.632813 232.0625 187.691406 C 232.0625 191.394531 228.550781 193.761719 222.351563 193.761719 C 216.058594 193.761719 211.726563 191.089844 210.800781 185 L 197.789063 185 "/>
<path style=" stroke:none;fill-rule:nonzero;fill:rgb(44.699097%,12.5%,50.19989%);fill-opacity:1;" d="M 4.84375 75.730469 L 30.070313 75.730469 L 30.070313 0.00390625 L 4.84375 0.00390625 Z M 4.84375 75.730469 "/>
<path style=" stroke:none;fill-rule:nonzero;fill:rgb(44.699097%,12.5%,50.19989%);fill-opacity:1;" d="M 80.4375 75.730469 L 105.679688 75.730469 L 105.679688 0.00390625 L 80.4375 0.00390625 Z M 80.4375 75.730469 "/>
<path style=" stroke:none;fill-rule:nonzero;fill:rgb(44.699097%,12.5%,50.19989%);fill-opacity:1;" d="M 42.628906 75.730469 L 67.875 75.730469 L 67.875 37.871094 L 42.628906 37.871094 Z M 42.628906 75.730469 "/>
<path style=" stroke:none;fill-rule:nonzero;fill:rgb(44.699097%,12.5%,50.19989%);fill-opacity:1;" d="M 240.316406 75.730469 L 265.546875 75.730469 L 265.546875 0.00390625 L 240.316406 0.00390625 Z M 240.316406 75.730469 "/>
<g clip-path="url(#clip5)" clip-rule="nonzero">
<path style=" stroke:none;fill-rule:nonzero;fill:rgb(44.699097%,12.5%,50.19989%);fill-opacity:1;" d="M 315.925781 75.730469 L 341.15625 75.730469 L 341.15625 0.00390625 L 315.925781 0.00390625 Z M 315.925781 75.730469 "/>
</g>
<path style=" stroke:none;fill-rule:nonzero;fill:rgb(44.699097%,12.5%,50.19989%);fill-opacity:1;" d="M 278.121094 75.730469 L 303.367188 75.730469 L 303.367188 37.871094 L 278.121094 37.871094 Z M 278.121094 75.730469 "/>
<path style=" stroke:none;fill-rule:nonzero;fill:rgb(44.699097%,12.5%,50.19989%);fill-opacity:1;" d="M 160.378906 75.730469 L 185.621094 75.730469 L 185.621094 0.00390625 L 160.378906 0.00390625 Z M 160.378906 75.730469 "/>
<path style=" stroke:none;fill-rule:nonzero;fill:rgb(44.699097%,12.5%,50.19989%);fill-opacity:1;" d="M 122.570313 37.871094 L 147.816406 37.871094 L 147.816406 0.0195313 L 122.570313 0.0195313 Z M 122.570313 37.871094 "/>
<path style=" stroke:none;fill-rule:nonzero;fill:rgb(44.699097%,12.5%,50.19989%);fill-opacity:1;" d="M 198.164063 37.871094 L 223.410156 37.871094 L 223.410156 0.0195313 L 198.164063 0.0195313 Z M 198.164063 37.871094 "/>
</g>
</svg>
